<svg width="96" height="96" viewBox="0 0 96 96" fill="none" xmlns="http://www.w3.org/2000/svg">
<g clip-path="url(#clip0)">
<path d="M78.9934 61.3875L73.3684 38.8875C73.0872 37.6498 71.9622 36.75 70.6686 36.75H42.5436C40.6872 36.75 39.3936 38.4938 39.8438 40.2375L45.4688 62.7375C45.75 63.9748 46.875 64.875 48.1686 64.875H76.2936C78.1499 64.875 79.4436 63.1312 78.9934 61.3875Z" fill="#FFA81F"/>
<path d="M76.2935 64.875H48.1685V36.75H70.6685C71.962 36.75 73.0872 37.6498 73.3683 38.8875L78.9933 61.3875C79.4435 63.1312 78.1497 64.875 76.2935 64.875Z" fill="#FF9800"/>
<path d="M50.8684 61.3875L48.1686 50.5312L44.7374 36.75H25.3317C24.0381 36.75 22.9129 37.6498 22.6319 38.8875L17.0069 61.3875C16.5567 63.1312 17.8504 64.875 19.7067 64.875H48.1686C50.0249 64.875 51.3186 63.1312 50.8684 61.3875Z" fill="url(#paint0_linear)"/>
<path d="M50.9809 11.4375V19.875C50.9809 21.7311 49.5747 22.6875 48.1684 22.6875C46.7622 22.6875 45.356 21.7311 45.356 19.875V11.4375C45.356 9.86231 46.5933 8.625 48.1684 8.625C49.7436 8.625 50.9809 9.86231 50.9809 11.4375Z" fill="#FFA81F"/>
<path d="M25.4772 23.5774L22.6647 15.1399C21.4874 11.608 26.83 9.84138 27.9985 13.3602L30.811 21.7977C31.9872 25.3262 26.6582 27.1204 25.4772 23.5774Z" fill="#FFA81F"/>
<path d="M9.70894 36.2776L1.27144 30.6526C-1.80206 28.6036 1.27406 23.9071 4.39163 25.9724L12.8291 31.5974C15.9248 33.6614 12.8102 38.3333 9.70894 36.2776Z" fill="#FFA81F"/>
<path d="M65.1891 21.7977L68.0016 13.3602C69.1701 9.84138 74.5127 11.608 73.3354 15.1399L70.5229 23.5774C69.342 27.1204 64.0082 25.3407 65.1891 21.7977Z" fill="#FF9800"/>
<path d="M83.1709 31.5975L91.6084 25.9725C94.7127 23.903 97.8073 28.6001 94.7286 30.6527L86.2911 36.2777C83.1563 38.3555 80.1077 33.6395 83.1709 31.5975Z" fill="#FF9800"/>
<path d="M48.1685 22.6875V8.625C49.7436 8.625 50.981 9.86231 50.981 11.4375V19.875C50.981 21.7311 49.5747 22.6875 48.1685 22.6875Z" fill="#FF9800"/>
<path d="M48.1685 64.875V50.5312L50.8683 61.3875C51.3185 63.1312 50.0247 64.875 48.1685 64.875Z" fill="#FFBC33"/>
<path d="M33.6838 83.8813C34.1289 85.65 32.7877 87.375 30.9566 87.375H2.83157C1.00026 87.375 -0.340931 85.65 0.104194 83.8813L5.72919 61.3813C6.04232 60.1288 7.16563 59.25 8.45657 59.25H25.3316C26.6225 59.25 27.7458 60.129 28.0589 61.3813L33.6838 83.8813Z" fill="url(#paint1_linear)"/>
<path d="M61.6124 59.25H42.5436C41.2501 59.25 40.1249 60.1498 39.8438 61.3875L33.8819 83.8875C33.4317 85.6312 34.7254 87.375 36.5817 87.375H68.6438L61.6124 59.25Z" fill="url(#paint2_linear)"/>
<path d="M95.8958 83.8813C96.3408 85.65 94.9998 87.375 93.1685 87.375H65.0435C63.7525 87.375 62.6292 86.496 62.3161 85.2437L56.6911 62.7437C56.246 60.975 57.5872 59.25 59.4185 59.25H87.5435C88.8344 59.25 89.9577 60.129 90.2708 61.3813L95.8958 83.8813Z" fill="#FF9800"/>
<path d="M39.1131 87.375H28.762L21.7307 59.25H46.1443L39.1131 87.375Z" fill="#FFA81F"/>
<path d="M68.6435 87.375H48.1685V59.25H61.6122L68.6435 87.375Z" fill="#FFBC33"/>
</g>
<defs>
<linearGradient id="paint0_linear" x1="24.1554" y1="42.7304" x2="47.4271" y2="70.8972" gradientUnits="userSpaceOnUse">
<stop stop-color="#FFDA45"/>
<stop offset="1" stop-color="#FFA425"/>
</linearGradient>
<linearGradient id="paint1_linear" x1="7.19504" y1="65.2304" x2="30.5035" y2="93.2014" gradientUnits="userSpaceOnUse">
<stop stop-color="#FFDA45"/>
<stop offset="1" stop-color="#FFA425"/>
</linearGradient>
<linearGradient id="paint2_linear" x1="41.2027" y1="65.2304" x2="64.3652" y2="93.9325" gradientUnits="userSpaceOnUse">
<stop stop-color="#FFDA45"/>
<stop offset="1" stop-color="#FFA425"/>
</linearGradient>
<clipPath id="clip0">
<rect width="96" height="96" fill="white"/>
</clipPath>
</defs>
</svg>
